# xmcd
#
# Track frame offsets:
#	150
#	16386
#	35528
#	51978
#	68732
#	88245
#	106488
#	128360
#	141556
#	158288
#	174524
#	193666
#	210116
#	226870
#	246383
#	264626
#	286498
#	299694
#
# Disc length: 4219 seconds
#
# Revision: 1
# Processed by: cddbd v1.5.2PL0 Copyright (c) Steve Scherf et al.
# Submitted via: audiograbber 1.83.01
#
DISCID=07107912
DTITLE=Various Artist - PHM0702-P
DYEAR=2007
DGENRE=karaoke
TTITLE0=Wind it Up - Gwen Stefani
TTITLE1=Keep Holding On - Avril Lavigne
TTITLE2=Hit Me up - Gia Farrell
TTITLE3=It's Not Over - Daughtry
TTITLE4=Here (In Your Arms) - Hellogoodbye
TTITLE5=Ride For You - Danity Kane
TTITLE6=How To Touch A Girl - JoJo
TTITLE7=The Pick Of Destiny - Tenacious D
TTITLE8=Honestly - Cartel
TTITLE9=Wind It Up - Gwen Stefani (vocal)
TTITLE10=Keep Holding On - Avril Lavigne (vocal)
TTITLE11=Hit Me Up - Gia Farrell (vocal)
TTITLE12=It's Not Over - Daughtry (vocal)
TTITLE13=Here (In Your Arms) - Hellogoodbye (vocal)
TTITLE14=Ride For You - Danity Kane (vocal)
TTITLE15=How To Touch A Girl - JoJo (vocal)
TTITLE16=The Pick of Destiny - Tenacious D (vocal)
TTITLE17=Honestly - Cartel (vocal)
EXTD=
EXTT0=
EXTT1=
EXTT2=
EXTT3=
EXTT4=
EXTT5=
EXTT6=
EXTT7=
EXTT8=
EXTT9=
EXTT10=
EXTT11=
EXTT12=
EXTT13=
EXTT14=
EXTT15=
EXTT16=
EXTT17=
PLAYORDER=
